<?xml version="1.0" encoding="iso-8859-1"?>
<!-- Generator: Adobe Illustrator 19.1.0, SVG Export Plug-In . SVG Version: 6.00 Build 0)  -->
<svg version="1.1" id="Capa_1" xmlns="http://www.w3.org/2000/svg" xmlns:xlink="http://www.w3.org/1999/xlink" x="0px" y="0px"
	 viewBox="0 0 63 63" style="enable-background:new 0 0 63 63;" xml:space="preserve">
<g>
	<g id="group-30svg">
		<path id="path-1_22_" style="fill:#EDC951;" d="M59.02,54.087c2.294-4.002,3.609-8.576,3.609-13.582
			c0-15.51-12.565-27.989-28.065-27.989C19.065,12.516,6.5,24.947,6.5,40.458c0,5.006,1.315,9.627,3.609,13.629H59.02z"/>
		<path id="path-2_22_" d="M29.434,40.364l13.358-17.416l-9.07,19.991c-0.575,1.265-2.066,1.826-3.332,1.251
			c-1.265-0.575-1.825-2.068-1.251-3.334C29.218,40.681,29.324,40.51,29.434,40.364z"/>
		<path id="path-3_22_" d="M57.642,55.088H5.358c-0.521,0-1.006-0.271-1.279-0.716C1.449,50.076,0,44.672,0,39.15
			C0,21.926,14.131,7.912,31.501,7.912C48.869,7.912,63,21.968,63,39.244c0,5.54-1.411,10.771-4.079,15.127
			C58.648,54.817,58.164,55.088,57.642,55.088z M6.216,52.086h50.569C58.89,48.349,60,43.928,60,39.244
			c0-15.621-12.785-28.33-28.499-28.33C15.785,10.915,3,23.58,3,39.15C3,43.819,4.137,48.378,6.216,52.086z"/>
		<path id="path-4_22_" d="M31.142,17.562c-0.828,0-1.5-0.672-1.5-1.501v-6.005c0-0.829,0.672-1.501,1.5-1.501
			c0.828,0,1.5,0.672,1.5,1.501v6.005C32.642,16.889,31.97,17.562,31.142,17.562z"/>
		<path id="path-5_22_" d="M8.642,38.076h-7c-0.828,0-1.5-0.672-1.5-1.501s0.672-1.501,1.5-1.501h7c0.828,0,1.5,0.672,1.5,1.501
			S9.47,38.076,8.642,38.076z"/>
		<path id="path-6_21_" d="M60.642,38.076h-7c-0.828,0-1.5-0.672-1.5-1.501s0.672-1.501,1.5-1.501h7c0.828,0,1.5,0.672,1.5,1.501
			S61.47,38.076,60.642,38.076z"/>
	</g>
</g>
<g>
</g>
<g>
</g>
<g>
</g>
<g>
</g>
<g>
</g>
<g>
</g>
<g>
</g>
<g>
</g>
<g>
</g>
<g>
</g>
<g>
</g>
<g>
</g>
<g>
</g>
<g>
</g>
<g>
</g>
</svg>
