<?xml version="1.0" encoding="iso-8859-1"?>
<!-- Generator: Adobe Illustrator 19.0.0, SVG Export Plug-In . SVG Version: 6.00 Build 0)  -->
<svg version="1.1" id="Layer_1" xmlns="http://www.w3.org/2000/svg" xmlns:xlink="http://www.w3.org/1999/xlink" x="0px" y="0px"
	 viewBox="0 0 512 512" style="enable-background:new 0 0 512 512;" xml:space="preserve">
<circle style="fill:#2D4452;" cx="256" cy="256" r="256"/>
<path style="fill:#233540;" d="M394.676,240.736c-2.672-8.336-9.792-14.716-18.548-16.324c-0.148-0.332-0.296-0.668-0.448-0.996
	c-1.116-3.516-2.46-6.928-4-10.24c-1.116-3.52-2.46-6.94-4-10.252c-1.116-3.516-2.46-6.928-4-10.24
	c-1.752-5.512-4.04-10.792-6.788-15.776c-0.384-0.904-0.796-1.784-1.212-2.672c-1.116-3.516-2.46-6.928-4-10.24
	c-1.116-3.52-2.46-6.94-4-10.252c-1.116-3.516-2.46-6.928-4-10.24c-2.772-8.736-6.9-16.872-12.092-24.192
	C316.244,93.416,288.032,76,255.812,76c-48.524,0-88,39.476-88,88v2.048v2.048V176v2.048v2.048V224h-28c-13.2,0-24,10.8-24,24v2.048
	V252v0.096v1.952v2.048V392v2.048v2.048c0,4.648,1.572,8.968,4.14,12.64l32.256,81.272C183.944,504.1,219.04,512,255.996,512
	c84.848,0,160.02-41.312,206.596-104.884L394.676,240.736z"/>
<path style="fill:#E6E6E6;" d="M395.812,392c0,13.2-10.8,24-24,24h-232c-13.2,0-24-10.8-24-24V248c0-13.2,10.8-24,24-24h232
	c13.2,0,24,10.8,24,24V392z"/>
<path style="fill:#B3B3B3;" d="M395.812,392c0,13.2-10.8,24-24,24h-232c-13.2,0-24-10.8-24-24V248c0-13.2,10.8-24,24-24h232
	c13.2,0,24,10.8,24,24V392z"/>
<path style="fill:#999999;" d="M371.812,224h-16c13.2,0,24,10.8,24,24v144c0,13.2-10.8,24-24,24h16c13.2,0,24-10.8,24-24V248
	C395.812,234.8,385.012,224,371.812,224z"/>
<path style="fill:#E6E6E6;" d="M191.812,224v-60c0-35.288,28.712-64,64-64s64,28.712,64,64v60h24v-60c0-48.524-39.476-88-88-88
	s-88,39.476-88,88v60H191.812z"/>
<g>
	<path style="fill:#F5F5F5;" d="M255.812,76c-48.524,0-88,39.476-88,88v12c6.624,0,12-5.372,12-12c0-41.908,34.092-76,76-76
		s76,34.092,76,76c0,6.628,5.376,12,12,12v-12C343.812,115.476,304.336,76,255.812,76z"/>
	<rect x="115.812" y="244" style="fill:#F5F5F5;" width="280" height="16"/>
	<rect x="115.812" y="380" style="fill:#F5F5F5;" width="280" height="16"/>
</g>
<g>
	<rect x="167.812" y="220" style="fill:#CCCCCC;" width="24" height="4"/>
	<rect x="319.812" y="220" style="fill:#CCCCCC;" width="24" height="4"/>
</g>
<path style="fill:#F5F5F5;" d="M231.14,325.52c0.772,1.784,1.16,3.932,1.16,6.448c0,2.788-0.484,5.404-1.452,7.836
	c-0.964,2.428-2.372,4.556-4.208,6.364c-1.84,1.812-4.1,3.24-6.8,4.268c-2.696,1.04-5.752,1.56-9.184,1.56
	c-1.884,0-3.796-0.192-5.752-0.584c-1.944-0.392-3.836-0.932-5.656-1.64c-1.828-0.704-3.54-1.54-5.14-2.508
	c-1.604-0.964-3-2.04-4.188-3.236l4.14-6.552c0.304-0.5,0.74-0.904,1.284-1.208c0.56-0.3,1.148-0.452,1.784-0.452
	c0.828,0,1.664,0.264,2.508,0.788s1.796,1.1,2.864,1.744c1.068,0.636,2.284,1.22,3.668,1.744s3.012,0.788,4.9,0.788
	c2.544,0,4.516-0.564,5.924-1.684s2.112-2.896,2.112-5.328c0-1.412-0.392-2.56-1.16-3.44c-0.772-0.884-1.788-1.616-3.052-2.196
	c-1.256-0.584-2.688-1.092-4.288-1.54c-1.604-0.436-3.252-0.928-4.932-1.468c-1.688-0.544-3.332-1.208-4.932-1.992
	c-1.6-0.788-3.032-1.828-4.288-3.112s-2.276-2.888-3.056-4.812c-0.768-1.916-1.156-4.292-1.156-7.112
	c0-2.264,0.452-4.476,1.368-6.632s2.252-4.08,4.024-5.764c1.764-1.684,3.936-3.032,6.512-4.048c2.576-1.008,5.516-1.508,8.832-1.508
	c1.852,0,3.656,0.14,5.416,0.432c1.752,0.292,3.416,0.724,5,1.284c1.576,0.568,3.048,1.244,4.416,2.032s2.592,1.68,3.672,2.676
	l-3.484,6.508c-0.416,0.664-0.852,1.164-1.304,1.496s-1.048,0.496-1.764,0.496c-0.632,0-1.316-0.2-2.048-0.596
	c-0.74-0.404-1.568-0.852-2.492-1.352c-0.92-0.492-1.984-0.944-3.172-1.348c-1.188-0.4-2.544-0.596-4.068-0.596
	c-2.62,0-4.584,0.56-5.868,1.676c-1.284,1.12-1.924,2.636-1.924,4.54c0,1.216,0.392,2.232,1.16,3.028
	c0.772,0.804,1.788,1.496,3.052,2.08c1.256,0.58,2.696,1.108,4.312,1.592c1.612,0.484,3.264,1.024,4.952,1.616
	c1.684,0.592,3.336,1.288,4.952,2.092c1.616,0.8,3.056,1.828,4.312,3.072C229.348,322.228,230.368,323.744,231.14,325.52z
	 M273.04,320.984c-1.252-1.244-2.696-2.264-4.312-3.072c-1.612-0.804-3.264-1.5-4.948-2.092c-1.692-0.592-3.34-1.132-4.956-1.616
	s-3.056-1.016-4.312-1.592c-1.256-0.584-2.272-1.272-3.048-2.08c-0.772-0.796-1.16-1.812-1.16-3.028c0-1.912,0.64-3.416,1.924-4.54
	c1.28-1.12,3.244-1.676,5.868-1.676c1.524,0,2.876,0.2,4.068,0.6c1.188,0.404,2.248,0.852,3.172,1.344
	c0.924,0.5,1.752,0.948,2.488,1.352s1.416,0.596,2.056,0.596c0.72,0,1.304-0.168,1.756-0.496c0.452-0.332,0.9-0.832,1.308-1.496
	l3.48-6.508c-1.08-0.996-2.3-1.888-3.672-2.676c-1.368-0.788-2.836-1.464-4.416-2.032c-1.58-0.572-3.244-0.996-5-1.284
	c-1.752-0.292-3.56-0.432-5.416-0.432c-3.312,0-6.256,0.5-8.828,1.508c-2.576,1.008-4.748,2.36-6.516,4.048
	c-1.764,1.688-3.104,3.608-4.024,5.764c-0.912,2.156-1.368,4.368-1.368,6.632c0,2.82,0.392,5.196,1.16,7.112
	c0.772,1.916,1.788,3.524,3.052,4.812c1.256,1.284,2.688,2.324,4.288,3.112c1.604,0.784,3.252,1.448,4.936,1.992
	c1.684,0.54,3.328,1.024,4.928,1.468c1.6,0.444,3.032,0.956,4.292,1.54c1.252,0.58,2.272,1.312,3.052,2.196
	c0.772,0.884,1.156,2.032,1.156,3.444c0,2.428-0.704,4.204-2.108,5.328c-1.408,1.116-3.392,1.68-5.928,1.68
	c-1.884,0-3.512-0.264-4.896-0.788c-1.388-0.524-2.604-1.104-3.668-1.744c-1.072-0.632-2.024-1.216-2.868-1.744
	c-0.844-0.532-1.68-0.788-2.508-0.788c-0.632,0-1.232,0.152-1.78,0.456c-0.556,0.3-0.98,0.704-1.284,1.204l-4.144,6.552
	c1.188,1.188,2.584,2.268,4.188,3.236c1.6,0.968,3.32,1.804,5.14,2.512c1.824,0.704,3.712,1.252,5.66,1.636s3.864,0.584,5.748,0.584
	c3.424,0,6.492-0.52,9.188-1.56c2.696-1.032,4.96-2.456,6.796-4.268s3.248-3.932,4.212-6.364c0.968-2.428,1.452-5.048,1.452-7.836
	c0-2.516-0.392-4.668-1.164-6.448C275.312,323.744,274.296,322.228,273.04,320.984z M299.812,340v-48h-16v60h36v-12H299.812z"/>
<path style="fill:#8C8C8C;" d="M227.14,321.52c0.772,1.784,1.16,3.932,1.16,6.448c0,2.788-0.484,5.404-1.452,7.836
	c-0.964,2.428-2.372,4.556-4.208,6.364c-1.84,1.812-4.1,3.24-6.8,4.268c-2.696,1.04-5.752,1.56-9.184,1.56
	c-1.884,0-3.796-0.192-5.752-0.584c-1.944-0.392-3.836-0.932-5.656-1.64c-1.828-0.704-3.54-1.54-5.14-2.508
	c-1.604-0.964-3-2.04-4.188-3.236l4.14-6.552c0.304-0.5,0.74-0.904,1.284-1.208c0.56-0.3,1.148-0.452,1.784-0.452
	c0.828,0,1.664,0.264,2.508,0.788s1.796,1.1,2.864,1.744c1.068,0.636,2.284,1.22,3.668,1.744s3.012,0.788,4.9,0.788
	c2.544,0,4.516-0.564,5.924-1.684s2.112-2.896,2.112-5.328c0-1.412-0.392-2.56-1.16-3.44c-0.772-0.884-1.788-1.616-3.052-2.196
	c-1.256-0.584-2.688-1.092-4.288-1.54c-1.604-0.436-3.252-0.928-4.932-1.468c-1.688-0.544-3.332-1.208-4.932-1.992
	c-1.6-0.788-3.032-1.828-4.288-3.112s-2.276-2.888-3.056-4.812c-0.768-1.916-1.156-4.292-1.156-7.112
	c0-2.264,0.452-4.476,1.368-6.632s2.252-4.08,4.024-5.764c1.764-1.684,3.936-3.032,6.512-4.048c2.576-1.008,5.516-1.508,8.832-1.508
	c1.852,0,3.656,0.14,5.416,0.432c1.752,0.292,3.416,0.724,5,1.284c1.576,0.568,3.048,1.244,4.416,2.032s2.592,1.68,3.672,2.676
	l-3.484,6.508c-0.416,0.664-0.852,1.164-1.304,1.496s-1.048,0.496-1.764,0.496c-0.632,0-1.316-0.2-2.048-0.596
	c-0.74-0.404-1.568-0.852-2.492-1.352c-0.92-0.492-1.984-0.944-3.172-1.348c-1.188-0.4-2.544-0.596-4.068-0.596
	c-2.62,0-4.584,0.56-5.868,1.676c-1.284,1.12-1.924,2.636-1.924,4.54c0,1.216,0.392,2.232,1.16,3.028
	c0.772,0.804,1.788,1.496,3.052,2.08c1.256,0.58,2.696,1.108,4.312,1.592c1.612,0.484,3.264,1.024,4.952,1.616
	c1.684,0.592,3.336,1.288,4.952,2.092c1.616,0.8,3.056,1.828,4.312,3.072C225.348,318.228,226.368,319.744,227.14,321.52z
	 M269.04,316.984c-1.252-1.244-2.696-2.264-4.312-3.072c-1.612-0.804-3.264-1.5-4.948-2.092c-1.692-0.592-3.34-1.132-4.956-1.616
	s-3.056-1.016-4.312-1.592c-1.256-0.584-2.272-1.272-3.048-2.08c-0.772-0.796-1.16-1.812-1.16-3.028c0-1.912,0.64-3.416,1.924-4.54
	c1.28-1.12,3.244-1.676,5.868-1.676c1.524,0,2.876,0.2,4.068,0.6c1.188,0.404,2.248,0.852,3.172,1.344
	c0.924,0.5,1.752,0.948,2.488,1.352s1.416,0.596,2.056,0.596c0.72,0,1.304-0.168,1.756-0.496c0.452-0.332,0.9-0.832,1.308-1.496
	l3.48-6.508c-1.08-0.996-2.3-1.888-3.672-2.676c-1.368-0.788-2.836-1.464-4.416-2.032c-1.58-0.572-3.244-0.996-5-1.284
	c-1.752-0.292-3.56-0.432-5.416-0.432c-3.312,0-6.256,0.5-8.828,1.508c-2.576,1.008-4.748,2.36-6.516,4.048
	c-1.764,1.688-3.104,3.608-4.024,5.764c-0.912,2.156-1.368,4.368-1.368,6.632c0,2.82,0.392,5.196,1.16,7.112
	c0.772,1.916,1.788,3.524,3.052,4.812c1.256,1.284,2.688,2.324,4.288,3.112c1.604,0.784,3.252,1.448,4.936,1.992
	c1.684,0.54,3.328,1.024,4.928,1.468s3.032,0.956,4.292,1.54c1.252,0.58,2.272,1.312,3.052,2.196
	c0.772,0.884,1.156,2.032,1.156,3.444c0,2.428-0.704,4.204-2.108,5.328c-1.408,1.116-3.392,1.68-5.928,1.68
	c-1.884,0-3.512-0.264-4.896-0.788c-1.388-0.524-2.604-1.104-3.668-1.744c-1.072-0.632-2.024-1.216-2.868-1.744
	c-0.844-0.532-1.68-0.788-2.508-0.788c-0.632,0-1.232,0.152-1.78,0.456c-0.556,0.3-0.98,0.704-1.284,1.204l-4.144,6.552
	c1.188,1.188,2.584,2.268,4.188,3.236c1.6,0.968,3.32,1.804,5.14,2.512c1.824,0.704,3.712,1.252,5.66,1.636s3.864,0.584,5.748,0.584
	c3.424,0,6.492-0.52,9.188-1.56c2.696-1.032,4.96-2.456,6.796-4.268s3.248-3.932,4.212-6.364c0.968-2.428,1.452-5.048,1.452-7.836
	c0-2.516-0.392-4.668-1.164-6.448C271.312,319.744,270.296,318.228,269.04,316.984z M295.812,336v-48h-16v60h36v-12H295.812z"/>
<g>
</g>
<g>
</g>
<g>
</g>
<g>
</g>
<g>
</g>
<g>
</g>
<g>
</g>
<g>
</g>
<g>
</g>
<g>
</g>
<g>
</g>
<g>
</g>
<g>
</g>
<g>
</g>
<g>
</g>
</svg>
